<mxfile host="app.diagrams.net" modified="2023-08-22T11:19:36.827Z" agent="Mozilla/5.0 (Windows NT 10.0; Win64; x64) AppleWebKit/537.36 (KHTML, like Gecko) Chrome/114.0.0.0 Safari/537.36" etag="CMe8vq2lEPB2ArAjjUZh" version="21.6.5" type="github" pages="3">
  <diagram name="第 1 页" id="XC1cmtRtYwHu6fNaA_AL">
    <mxGraphModel dx="2261" dy="3102" grid="1" gridSize="10" guides="1" tooltips="1" connect="1" arrows="1" fold="1" page="1" pageScale="1" pageWidth="827" pageHeight="1169" math="0" shadow="0">
      <root>
        <mxCell id="0" />
        <mxCell id="1" parent="0" />
        <mxCell id="74ATDEeHJn4u9h74vfnx-1" value="" style="edgeStyle=orthogonalEdgeStyle;rounded=0;orthogonalLoop=1;jettySize=auto;html=1;fontFamily=Helvetica;fontSize=12;fontColor=default;" edge="1" parent="1" source="74ATDEeHJn4u9h74vfnx-2" target="74ATDEeHJn4u9h74vfnx-4">
          <mxGeometry relative="1" as="geometry">
            <Array as="points">
              <mxPoint x="-90" y="-2140" />
              <mxPoint x="-90" y="-2140" />
            </Array>
          </mxGeometry>
        </mxCell>
        <mxCell id="74ATDEeHJn4u9h74vfnx-2" value="EndorseInquiryRequest" style="rounded=1;whiteSpace=wrap;html=1;fillColor=#dae8fc;strokeColor=#6c8ebf;" vertex="1" parent="1">
          <mxGeometry x="-160" y="-2240" width="130" height="70" as="geometry" />
        </mxCell>
        <mxCell id="74ATDEeHJn4u9h74vfnx-3" value="" style="edgeStyle=orthogonalEdgeStyle;rounded=0;orthogonalLoop=1;jettySize=auto;html=1;fontFamily=Helvetica;fontSize=12;fontColor=default;" edge="1" parent="1" source="74ATDEeHJn4u9h74vfnx-4" target="74ATDEeHJn4u9h74vfnx-6">
          <mxGeometry relative="1" as="geometry" />
        </mxCell>
        <mxCell id="74ATDEeHJn4u9h74vfnx-4" value="并行执行订单请求" style="rounded=0;whiteSpace=wrap;html=1;" vertex="1" parent="1">
          <mxGeometry x="-150" y="-2088" width="120" height="60" as="geometry" />
        </mxCell>
        <mxCell id="74ATDEeHJn4u9h74vfnx-5" value="" style="edgeStyle=orthogonalEdgeStyle;rounded=0;orthogonalLoop=1;jettySize=auto;html=1;fontFamily=Helvetica;fontSize=12;fontColor=default;" edge="1" parent="1" source="74ATDEeHJn4u9h74vfnx-6" target="74ATDEeHJn4u9h74vfnx-8">
          <mxGeometry relative="1" as="geometry" />
        </mxCell>
        <mxCell id="74ATDEeHJn4u9h74vfnx-6" value="构建EndorseRequestVO" style="rounded=0;whiteSpace=wrap;html=1;" vertex="1" parent="1">
          <mxGeometry x="-150" y="-1948" width="120" height="60" as="geometry" />
        </mxCell>
        <mxCell id="74ATDEeHJn4u9h74vfnx-7" value="" style="edgeStyle=orthogonalEdgeStyle;rounded=0;orthogonalLoop=1;jettySize=auto;html=1;fontFamily=Helvetica;fontSize=12;fontColor=default;" edge="1" parent="1" source="74ATDEeHJn4u9h74vfnx-8" target="74ATDEeHJn4u9h74vfnx-10">
          <mxGeometry relative="1" as="geometry" />
        </mxCell>
        <mxCell id="74ATDEeHJn4u9h74vfnx-8" value="构建人程分组集合" style="rounded=0;whiteSpace=wrap;html=1;fontFamily=Helvetica;fontSize=12;fontColor=default;strokeColor=default;fillColor=default;" vertex="1" parent="1">
          <mxGeometry x="-150" y="-1788" width="120" height="60" as="geometry" />
        </mxCell>
        <mxCell id="74ATDEeHJn4u9h74vfnx-9" value="" style="edgeStyle=orthogonalEdgeStyle;rounded=0;orthogonalLoop=1;jettySize=auto;html=1;fontFamily=Helvetica;fontSize=12;fontColor=default;" edge="1" parent="1" source="74ATDEeHJn4u9h74vfnx-10" target="74ATDEeHJn4u9h74vfnx-13">
          <mxGeometry relative="1" as="geometry">
            <Array as="points">
              <mxPoint x="-95" y="-1580" />
              <mxPoint x="-95" y="-1580" />
            </Array>
          </mxGeometry>
        </mxCell>
        <mxCell id="74ATDEeHJn4u9h74vfnx-10" value="订单层面可改校验" style="rounded=0;whiteSpace=wrap;html=1;fontFamily=Helvetica;fontSize=12;fontColor=default;strokeColor=default;fillColor=default;" vertex="1" parent="1">
          <mxGeometry x="-150" y="-1648" width="120" height="60" as="geometry" />
        </mxCell>
        <mxCell id="74ATDEeHJn4u9h74vfnx-11" style="edgeStyle=orthogonalEdgeStyle;rounded=0;orthogonalLoop=1;jettySize=auto;html=1;entryX=1;entryY=0.5;entryDx=0;entryDy=0;fontFamily=Helvetica;fontSize=12;fontColor=default;" edge="1" parent="1" source="74ATDEeHJn4u9h74vfnx-13" target="74ATDEeHJn4u9h74vfnx-15">
          <mxGeometry relative="1" as="geometry">
            <Array as="points">
              <mxPoint x="80" y="-1490" />
              <mxPoint x="80" y="-730" />
            </Array>
          </mxGeometry>
        </mxCell>
        <mxCell id="74ATDEeHJn4u9h74vfnx-12" value="" style="edgeStyle=orthogonalEdgeStyle;rounded=0;orthogonalLoop=1;jettySize=auto;html=1;fontFamily=Helvetica;fontSize=12;fontColor=default;" edge="1" parent="1" source="74ATDEeHJn4u9h74vfnx-13" target="74ATDEeHJn4u9h74vfnx-19">
          <mxGeometry relative="1" as="geometry">
            <Array as="points">
              <mxPoint x="-95" y="-1380" />
              <mxPoint x="-95" y="-1380" />
            </Array>
          </mxGeometry>
        </mxCell>
        <mxCell id="74ATDEeHJn4u9h74vfnx-13" value="订单可改？" style="rhombus;whiteSpace=wrap;html=1;rounded=0;fontFamily=Helvetica;fontSize=12;fontColor=default;strokeColor=default;fillColor=default;" vertex="1" parent="1">
          <mxGeometry x="-135" y="-1530" width="80" height="80" as="geometry" />
        </mxCell>
        <mxCell id="74ATDEeHJn4u9h74vfnx-14" value="" style="edgeStyle=orthogonalEdgeStyle;rounded=0;orthogonalLoop=1;jettySize=auto;html=1;fontFamily=Helvetica;fontSize=12;fontColor=default;" edge="1" parent="1" source="74ATDEeHJn4u9h74vfnx-15" target="74ATDEeHJn4u9h74vfnx-17">
          <mxGeometry relative="1" as="geometry" />
        </mxCell>
        <mxCell id="74ATDEeHJn4u9h74vfnx-15" value="订单能否与关联订单一起改校验" style="rounded=0;whiteSpace=wrap;html=1;fontFamily=Helvetica;fontSize=12;fontColor=default;strokeColor=default;fillColor=default;" vertex="1" parent="1">
          <mxGeometry x="-150" y="-760" width="120" height="60" as="geometry" />
        </mxCell>
        <mxCell id="74ATDEeHJn4u9h74vfnx-16" value="" style="edgeStyle=orthogonalEdgeStyle;rounded=0;orthogonalLoop=1;jettySize=auto;html=1;fontFamily=Helvetica;fontSize=12;fontColor=default;" edge="1" parent="1" source="74ATDEeHJn4u9h74vfnx-17" target="74ATDEeHJn4u9h74vfnx-28">
          <mxGeometry relative="1" as="geometry" />
        </mxCell>
        <mxCell id="74ATDEeHJn4u9h74vfnx-17" value="国内是否多段一起改校验" style="rounded=0;whiteSpace=wrap;html=1;fontFamily=Helvetica;fontSize=12;fontColor=default;strokeColor=default;fillColor=default;" vertex="1" parent="1">
          <mxGeometry x="-150" y="-640" width="120" height="60" as="geometry" />
        </mxCell>
        <mxCell id="74ATDEeHJn4u9h74vfnx-18" value="" style="edgeStyle=orthogonalEdgeStyle;rounded=0;orthogonalLoop=1;jettySize=auto;html=1;fontFamily=Helvetica;fontSize=12;fontColor=default;" edge="1" parent="1" source="74ATDEeHJn4u9h74vfnx-19" target="74ATDEeHJn4u9h74vfnx-21">
          <mxGeometry relative="1" as="geometry" />
        </mxCell>
        <mxCell id="74ATDEeHJn4u9h74vfnx-19" value="并行加载票号信息、航变信息、政策信息等" style="rounded=0;whiteSpace=wrap;html=1;fontFamily=Helvetica;fontSize=12;fontColor=default;strokeColor=default;fillColor=default;" vertex="1" parent="1">
          <mxGeometry x="-150" y="-1360" width="120" height="60" as="geometry" />
        </mxCell>
        <mxCell id="74ATDEeHJn4u9h74vfnx-20" value="" style="edgeStyle=orthogonalEdgeStyle;rounded=0;orthogonalLoop=1;jettySize=auto;html=1;fontFamily=Helvetica;fontSize=12;fontColor=default;" edge="1" parent="1" source="74ATDEeHJn4u9h74vfnx-21" target="74ATDEeHJn4u9h74vfnx-23">
          <mxGeometry relative="1" as="geometry" />
        </mxCell>
        <mxCell id="74ATDEeHJn4u9h74vfnx-21" value="可改校验（改签中、退票、票号状态）" style="rounded=0;whiteSpace=wrap;html=1;fontFamily=Helvetica;fontSize=12;fontColor=default;strokeColor=default;fillColor=default;" vertex="1" parent="1">
          <mxGeometry x="-150" y="-1200" width="120" height="60" as="geometry" />
        </mxCell>
        <mxCell id="74ATDEeHJn4u9h74vfnx-22" value="" style="edgeStyle=orthogonalEdgeStyle;rounded=0;orthogonalLoop=1;jettySize=auto;html=1;fontFamily=Helvetica;fontSize=12;fontColor=default;" edge="1" parent="1" source="74ATDEeHJn4u9h74vfnx-23" target="74ATDEeHJn4u9h74vfnx-26">
          <mxGeometry relative="1" as="geometry" />
        </mxCell>
        <mxCell id="74ATDEeHJn4u9h74vfnx-23" value="可改类型校验" style="rounded=0;whiteSpace=wrap;html=1;fontFamily=Helvetica;fontSize=12;fontColor=default;strokeColor=default;fillColor=default;" vertex="1" parent="1">
          <mxGeometry x="-150" y="-1050" width="120" height="60" as="geometry" />
        </mxCell>
        <mxCell id="74ATDEeHJn4u9h74vfnx-24" value="N" style="text;html=1;align=center;verticalAlign=middle;resizable=0;points=[];autosize=1;strokeColor=none;fillColor=none;fontSize=12;fontFamily=Helvetica;fontColor=default;" vertex="1" parent="1">
          <mxGeometry x="-45" y="-1525" width="30" height="30" as="geometry" />
        </mxCell>
        <mxCell id="74ATDEeHJn4u9h74vfnx-25" value="" style="edgeStyle=orthogonalEdgeStyle;rounded=0;orthogonalLoop=1;jettySize=auto;html=1;fontFamily=Helvetica;fontSize=12;fontColor=default;" edge="1" parent="1" source="74ATDEeHJn4u9h74vfnx-26" target="74ATDEeHJn4u9h74vfnx-15">
          <mxGeometry relative="1" as="geometry" />
        </mxCell>
        <mxCell id="74ATDEeHJn4u9h74vfnx-26" value="不可改检查" style="rounded=0;whiteSpace=wrap;html=1;fontFamily=Helvetica;fontSize=12;fontColor=default;strokeColor=default;fillColor=default;" vertex="1" parent="1">
          <mxGeometry x="-150" y="-890" width="120" height="60" as="geometry" />
        </mxCell>
        <mxCell id="74ATDEeHJn4u9h74vfnx-27" value="" style="edgeStyle=orthogonalEdgeStyle;rounded=0;orthogonalLoop=1;jettySize=auto;html=1;fontFamily=Helvetica;fontSize=12;fontColor=default;" edge="1" parent="1" source="74ATDEeHJn4u9h74vfnx-28" target="74ATDEeHJn4u9h74vfnx-29">
          <mxGeometry relative="1" as="geometry" />
        </mxCell>
        <mxCell id="74ATDEeHJn4u9h74vfnx-28" value="构建Response" style="rounded=0;whiteSpace=wrap;html=1;fontFamily=Helvetica;fontSize=12;fontColor=default;strokeColor=default;fillColor=default;" vertex="1" parent="1">
          <mxGeometry x="-150" y="-520" width="120" height="60" as="geometry" />
        </mxCell>
        <mxCell id="74ATDEeHJn4u9h74vfnx-29" value="EndorseInquiryResponse" style="rounded=1;whiteSpace=wrap;html=1;fontFamily=Helvetica;fontSize=12;strokeColor=#6c8ebf;fillColor=#dae8fc;" vertex="1" parent="1">
          <mxGeometry x="-160" y="-400" width="140" height="70" as="geometry" />
        </mxCell>
      </root>
    </mxGraphModel>
  </diagram>
  <diagram id="98-DHvgmvqbLAqVTw2Yh" name="问询时序图-重构前">
    <mxGraphModel dx="2876" dy="1091" grid="1" gridSize="10" guides="1" tooltips="1" connect="1" arrows="1" fold="1" page="1" pageScale="1" pageWidth="827" pageHeight="1169" background="none" math="0" shadow="0">
      <root>
        <mxCell id="0" />
        <mxCell id="1" parent="0" />
        <mxCell id="QJuXcNw7wFdoZ7rtJz3L-24" value="" style="html=1;points=[];perimeter=orthogonalPerimeter;outlineConnect=0;targetShapes=umlLifeline;portConstraint=eastwest;newEdgeStyle={&quot;edgeStyle&quot;:&quot;elbowEdgeStyle&quot;,&quot;elbow&quot;:&quot;vertical&quot;,&quot;curved&quot;:0,&quot;rounded&quot;:0};rounded=1;fillColor=#1ba1e2;fontColor=#ffffff;strokeColor=#006EAF;" vertex="1" parent="1">
          <mxGeometry x="-330" y="1600" width="10" height="580" as="geometry" />
        </mxCell>
        <mxCell id="g61AM5IbiB40RlU1EeOU-11" value="SingleOrderCheck" style="shape=umlLifeline;perimeter=lifelinePerimeter;whiteSpace=wrap;html=1;container=1;collapsible=0;recursiveResize=0;outlineConnect=0;fillColor=#dae8fc;strokeColor=#6c8ebf;rounded=1;" vertex="1" parent="1">
          <mxGeometry x="-390" y="80" width="130" height="2280" as="geometry" />
        </mxCell>
        <mxCell id="g61AM5IbiB40RlU1EeOU-20" value="" style="html=1;points=[];perimeter=orthogonalPerimeter;outlineConnect=0;targetShapes=umlLifeline;portConstraint=eastwest;newEdgeStyle={&quot;edgeStyle&quot;:&quot;elbowEdgeStyle&quot;,&quot;elbow&quot;:&quot;vertical&quot;,&quot;curved&quot;:0,&quot;rounded&quot;:0};rounded=1;fillColor=#1ba1e2;fontColor=#ffffff;strokeColor=#006EAF;" vertex="1" parent="g61AM5IbiB40RlU1EeOU-11">
          <mxGeometry x="60" y="920" width="10" height="240" as="geometry" />
        </mxCell>
        <mxCell id="g61AM5IbiB40RlU1EeOU-15" value="" style="html=1;points=[];perimeter=orthogonalPerimeter;outlineConnect=0;targetShapes=umlLifeline;portConstraint=eastwest;newEdgeStyle={&quot;edgeStyle&quot;:&quot;elbowEdgeStyle&quot;,&quot;elbow&quot;:&quot;vertical&quot;,&quot;curved&quot;:0,&quot;rounded&quot;:0};rounded=1;fillColor=#1ba1e2;fontColor=#ffffff;strokeColor=#006EAF;" vertex="1" parent="g61AM5IbiB40RlU1EeOU-11">
          <mxGeometry x="60" y="199" width="10" height="41" as="geometry" />
        </mxCell>
        <mxCell id="g61AM5IbiB40RlU1EeOU-17" value="" style="html=1;points=[];perimeter=orthogonalPerimeter;outlineConnect=0;targetShapes=umlLifeline;portConstraint=eastwest;newEdgeStyle={&quot;edgeStyle&quot;:&quot;elbowEdgeStyle&quot;,&quot;elbow&quot;:&quot;vertical&quot;,&quot;curved&quot;:0,&quot;rounded&quot;:0};rounded=1;fillColor=#1ba1e2;fontColor=#ffffff;strokeColor=#006EAF;" vertex="1" parent="g61AM5IbiB40RlU1EeOU-11">
          <mxGeometry x="60" y="480" width="10" height="40" as="geometry" />
        </mxCell>
        <mxCell id="g61AM5IbiB40RlU1EeOU-21" value="" style="html=1;points=[];perimeter=orthogonalPerimeter;outlineConnect=0;targetShapes=umlLifeline;portConstraint=eastwest;newEdgeStyle={&quot;edgeStyle&quot;:&quot;elbowEdgeStyle&quot;,&quot;elbow&quot;:&quot;vertical&quot;,&quot;curved&quot;:0,&quot;rounded&quot;:0};rounded=1;" vertex="1" parent="g61AM5IbiB40RlU1EeOU-11">
          <mxGeometry x="65" y="967" width="10" height="40" as="geometry" />
        </mxCell>
        <mxCell id="g61AM5IbiB40RlU1EeOU-22" value="2 构建人程分组集合" style="html=1;align=left;spacingLeft=2;endArrow=block;rounded=1;edgeStyle=orthogonalEdgeStyle;curved=0;rounded=0;" edge="1" target="g61AM5IbiB40RlU1EeOU-21" parent="g61AM5IbiB40RlU1EeOU-11">
          <mxGeometry relative="1" as="geometry">
            <mxPoint x="70" y="947" as="sourcePoint" />
            <Array as="points">
              <mxPoint x="100" y="977" />
            </Array>
          </mxGeometry>
        </mxCell>
        <mxCell id="g61AM5IbiB40RlU1EeOU-25" value="" style="html=1;points=[];perimeter=orthogonalPerimeter;outlineConnect=0;targetShapes=umlLifeline;portConstraint=eastwest;newEdgeStyle={&quot;edgeStyle&quot;:&quot;elbowEdgeStyle&quot;,&quot;elbow&quot;:&quot;vertical&quot;,&quot;curved&quot;:0,&quot;rounded&quot;:0};rounded=1;" vertex="1" parent="g61AM5IbiB40RlU1EeOU-11">
          <mxGeometry x="65" y="1037" width="10" height="40" as="geometry" />
        </mxCell>
        <mxCell id="vmFS1IPTxP4jYsqpDuVL-21" value="9 国内多段一起改校验" style="html=1;align=left;spacingLeft=2;endArrow=block;rounded=1;edgeStyle=orthogonalEdgeStyle;curved=0;rounded=0;" edge="1" target="vmFS1IPTxP4jYsqpDuVL-20" parent="g61AM5IbiB40RlU1EeOU-11">
          <mxGeometry x="-0.0035" relative="1" as="geometry">
            <mxPoint x="70" y="2000" as="sourcePoint" />
            <Array as="points">
              <mxPoint x="100" y="2030" />
            </Array>
            <mxPoint as="offset" />
          </mxGeometry>
        </mxCell>
        <mxCell id="vmFS1IPTxP4jYsqpDuVL-20" value="" style="html=1;points=[];perimeter=orthogonalPerimeter;outlineConnect=0;targetShapes=umlLifeline;portConstraint=eastwest;newEdgeStyle={&quot;edgeStyle&quot;:&quot;elbowEdgeStyle&quot;,&quot;elbow&quot;:&quot;vertical&quot;,&quot;curved&quot;:0,&quot;rounded&quot;:0};rounded=1;" vertex="1" parent="g61AM5IbiB40RlU1EeOU-11">
          <mxGeometry x="65" y="2020" width="10" height="40" as="geometry" />
        </mxCell>
        <mxCell id="g61AM5IbiB40RlU1EeOU-26" value="3 订单层不可改校验" style="html=1;align=left;spacingLeft=2;endArrow=block;rounded=1;edgeStyle=orthogonalEdgeStyle;curved=0;rounded=0;" edge="1" target="g61AM5IbiB40RlU1EeOU-25" parent="g61AM5IbiB40RlU1EeOU-11">
          <mxGeometry relative="1" as="geometry">
            <mxPoint x="70" y="1017" as="sourcePoint" />
            <Array as="points">
              <mxPoint x="100" y="1047" />
            </Array>
            <mxPoint as="offset" />
          </mxGeometry>
        </mxCell>
        <mxCell id="vmFS1IPTxP4jYsqpDuVL-13" style="edgeStyle=orthogonalEdgeStyle;rounded=1;orthogonalLoop=1;jettySize=auto;html=1;" edge="1" parent="1" source="vmFS1IPTxP4jYsqpDuVL-12">
          <mxGeometry relative="1" as="geometry">
            <mxPoint x="-230" y="1750" as="targetPoint" />
          </mxGeometry>
        </mxCell>
        <mxCell id="iPr5nIbGFoYJWPTCfkHv-1" value="" style="shape=umlLifeline;participant=umlActor;perimeter=lifelinePerimeter;whiteSpace=wrap;html=1;container=1;collapsible=0;recursiveResize=0;verticalAlign=top;spacingTop=36;outlineConnect=0;rounded=1;" vertex="1" parent="1">
          <mxGeometry x="-811" y="80" width="20" height="2280" as="geometry" />
        </mxCell>
        <mxCell id="iPr5nIbGFoYJWPTCfkHv-2" value="EndorseRequestVO" style="shape=umlLifeline;perimeter=lifelinePerimeter;whiteSpace=wrap;html=1;container=1;collapsible=0;recursiveResize=0;outlineConnect=0;fillColor=#dae8fc;strokeColor=#6c8ebf;rounded=1;" vertex="1" parent="1">
          <mxGeometry x="-160" y="80" width="160" height="2270" as="geometry" />
        </mxCell>
        <mxCell id="QJuXcNw7wFdoZ7rtJz3L-13" style="edgeStyle=orthogonalEdgeStyle;rounded=1;orthogonalLoop=1;jettySize=auto;html=1;endArrow=oval;endFill=1;" edge="1" parent="iPr5nIbGFoYJWPTCfkHv-2" source="QJuXcNw7wFdoZ7rtJz3L-3">
          <mxGeometry relative="1" as="geometry">
            <mxPoint x="-20" y="1030" as="targetPoint" />
            <Array as="points">
              <mxPoint x="-5" y="985" />
              <mxPoint x="-5" y="1030" />
            </Array>
          </mxGeometry>
        </mxCell>
        <mxCell id="iPr5nIbGFoYJWPTCfkHv-3" value="" style="html=1;points=[];perimeter=orthogonalPerimeter;rounded=1;fillColor=#60a917;fontColor=#ffffff;strokeColor=#2D7600;" vertex="1" parent="iPr5nIbGFoYJWPTCfkHv-2">
          <mxGeometry x="74.5" y="240" width="10" height="680" as="geometry" />
        </mxCell>
        <mxCell id="iPr5nIbGFoYJWPTCfkHv-6" value="加载OrderDetail" style="html=1;verticalAlign=bottom;endArrow=block;rounded=1;entryX=-0.066;entryY=-0.015;entryDx=0;entryDy=0;entryPerimeter=0;" edge="1" parent="iPr5nIbGFoYJWPTCfkHv-2">
          <mxGeometry x="0.0029" width="80" relative="1" as="geometry">
            <mxPoint x="84.5" y="298" as="sourcePoint" />
            <mxPoint x="313.84000000000015" y="296.79999999999995" as="targetPoint" />
            <mxPoint as="offset" />
          </mxGeometry>
        </mxCell>
        <mxCell id="iPr5nIbGFoYJWPTCfkHv-29" value="查询改签明细" style="html=1;verticalAlign=bottom;endArrow=block;rounded=1;" edge="1" parent="iPr5nIbGFoYJWPTCfkHv-2">
          <mxGeometry x="0.0016" width="80" relative="1" as="geometry">
            <mxPoint x="84.5" y="599" as="sourcePoint" />
            <mxPoint x="719.5" y="599" as="targetPoint" />
            <mxPoint as="offset" />
          </mxGeometry>
        </mxCell>
        <mxCell id="g61AM5IbiB40RlU1EeOU-16" value="1 Build requestVO" style="html=1;verticalAlign=bottom;endArrow=block;rounded=1;entryX=-0.25;entryY=-0.001;entryDx=0;entryDy=0;entryPerimeter=0;" edge="1" parent="iPr5nIbGFoYJWPTCfkHv-2" source="g61AM5IbiB40RlU1EeOU-15">
          <mxGeometry width="80" relative="1" as="geometry">
            <mxPoint x="-156.5" y="240" as="sourcePoint" />
            <mxPoint x="75" y="238.92000000000007" as="targetPoint" />
            <mxPoint as="offset" />
          </mxGeometry>
        </mxCell>
        <mxCell id="QJuXcNw7wFdoZ7rtJz3L-3" value="1. 按FlightClass，及Source拆分的订单维度不可改校验&lt;br style=&quot;border-color: var(--border-color);&quot;&gt;&lt;div style=&quot;border-color: var(--border-color);&quot;&gt;2.&amp;nbsp;特殊维度校验&lt;/div&gt;3.&amp;nbsp;能否票款沿用及票款沿用模式校验" style="shape=note;size=20;whiteSpace=wrap;html=1;fillColor=#fff2cc;strokeColor=#d6b656;align=left;rounded=1;" vertex="1" parent="iPr5nIbGFoYJWPTCfkHv-2">
          <mxGeometry x="18.5" y="940" width="211.5" height="90" as="geometry" />
        </mxCell>
        <mxCell id="QJuXcNw7wFdoZ7rtJz3L-4" value="EndorseRequestVO" style="html=1;verticalAlign=bottom;endArrow=open;dashed=1;endSize=8;edgeStyle=elbowEdgeStyle;elbow=vertical;curved=0;rounded=1;" edge="1" parent="iPr5nIbGFoYJWPTCfkHv-2">
          <mxGeometry relative="1" as="geometry">
            <mxPoint x="74.5" y="920" as="sourcePoint" />
            <mxPoint x="-159.5" y="920" as="targetPoint" />
            <mxPoint as="offset" />
          </mxGeometry>
        </mxCell>
        <mxCell id="LN-jjJmm47JvM6QbmsbF-4" style="edgeStyle=orthogonalEdgeStyle;rounded=0;orthogonalLoop=1;jettySize=auto;html=1;curved=1;" edge="1" parent="iPr5nIbGFoYJWPTCfkHv-2" source="LN-jjJmm47JvM6QbmsbF-3">
          <mxGeometry relative="1" as="geometry">
            <mxPoint x="-40" y="1910" as="targetPoint" />
          </mxGeometry>
        </mxCell>
        <mxCell id="LN-jjJmm47JvM6QbmsbF-3" value="1.订单类型校验&lt;br&gt;&lt;div style=&quot;&quot;&gt;&lt;span style=&quot;background-color: initial;&quot;&gt;2.&lt;/span&gt;&lt;span style=&quot;background-color: initial;&quot;&gt;航变可改校验&lt;/span&gt;&lt;/div&gt;3.折扣金额校验&lt;br&gt;4.年龄类型校验&lt;br&gt;5.X产品校验" style="shape=note;size=20;whiteSpace=wrap;html=1;align=left;fillColor=#fff2cc;strokeColor=#d6b656;" vertex="1" parent="iPr5nIbGFoYJWPTCfkHv-2">
          <mxGeometry x="30" y="1900" width="130" height="80" as="geometry" />
        </mxCell>
        <mxCell id="iPr5nIbGFoYJWPTCfkHv-7" value="EndorseInquiryRequest" style="html=1;verticalAlign=bottom;endArrow=block;rounded=1;" edge="1" parent="1">
          <mxGeometry width="80" relative="1" as="geometry">
            <mxPoint x="-801" y="160" as="sourcePoint" />
            <mxPoint x="-562" y="160" as="targetPoint" />
          </mxGeometry>
        </mxCell>
        <mxCell id="iPr5nIbGFoYJWPTCfkHv-8" value="&lt;span style=&quot;color: rgb(57, 57, 57); font-family: -apple-system, BlinkMacSystemFont, &amp;quot;Segoe UI&amp;quot;, Roboto, Oxygen, Ubuntu, &amp;quot;Fira Sans&amp;quot;, &amp;quot;Droid Sans&amp;quot;, &amp;quot;Helvetica Neue&amp;quot;, sans-serif; font-size: 14px; text-align: left;&quot;&gt;订单详情&lt;/span&gt;" style="shape=umlLifeline;perimeter=lifelinePerimeter;whiteSpace=wrap;html=1;container=1;collapsible=0;recursiveResize=0;outlineConnect=0;fillColor=#fff2cc;strokeColor=#d6b656;rounded=1;" vertex="1" parent="1">
          <mxGeometry x="110" y="80" width="100" height="2280" as="geometry" />
        </mxCell>
        <mxCell id="iPr5nIbGFoYJWPTCfkHv-9" value="" style="html=1;points=[];perimeter=orthogonalPerimeter;rounded=1;fillColor=#fff2cc;strokeColor=#d6b656;" vertex="1" parent="iPr5nIbGFoYJWPTCfkHv-8">
          <mxGeometry x="45" y="296" width="10" height="40" as="geometry" />
        </mxCell>
        <mxCell id="iPr5nIbGFoYJWPTCfkHv-10" value="" style="html=1;verticalAlign=bottom;endArrow=open;dashed=1;endSize=8;edgeStyle=elbowEdgeStyle;elbow=vertical;curved=0;rounded=1;" edge="1" parent="iPr5nIbGFoYJWPTCfkHv-8">
          <mxGeometry x="0.003" relative="1" as="geometry">
            <mxPoint x="49" y="336" as="sourcePoint" />
            <mxPoint x="-185" y="336" as="targetPoint" />
            <mxPoint as="offset" />
          </mxGeometry>
        </mxCell>
        <mxCell id="iPr5nIbGFoYJWPTCfkHv-31" value="" style="html=1;points=[];perimeter=orthogonalPerimeter;rounded=1;fillColor=#fff2cc;strokeColor=#d6b656;" vertex="1" parent="iPr5nIbGFoYJWPTCfkHv-8">
          <mxGeometry x="45" y="684" width="10" height="40" as="geometry" />
        </mxCell>
        <mxCell id="iPr5nIbGFoYJWPTCfkHv-32" value="" style="html=1;points=[];perimeter=orthogonalPerimeter;rounded=1;fillColor=#fff2cc;strokeColor=#d6b656;" vertex="1" parent="iPr5nIbGFoYJWPTCfkHv-8">
          <mxGeometry x="45" y="779" width="10" height="40" as="geometry" />
        </mxCell>
        <mxCell id="iPr5nIbGFoYJWPTCfkHv-11" value="par" style="shape=umlFrame;whiteSpace=wrap;html=1;pointerEvents=0;rounded=1;" vertex="1" parent="1">
          <mxGeometry x="-200" y="356" width="660" height="167" as="geometry" />
        </mxCell>
        <mxCell id="iPr5nIbGFoYJWPTCfkHv-13" value="" style="endArrow=none;dashed=1;html=1;rounded=1;entryX=1;entryY=0.49;entryDx=0;entryDy=0;entryPerimeter=0;exitX=0.001;exitY=0.494;exitDx=0;exitDy=0;exitPerimeter=0;" edge="1" parent="1" source="iPr5nIbGFoYJWPTCfkHv-11" target="iPr5nIbGFoYJWPTCfkHv-11">
          <mxGeometry width="50" height="50" relative="1" as="geometry">
            <mxPoint x="-200" y="456" as="sourcePoint" />
            <mxPoint x="-150" y="406" as="targetPoint" />
          </mxGeometry>
        </mxCell>
        <mxCell id="iPr5nIbGFoYJWPTCfkHv-14" value="国际改期AGG" style="shape=umlLifeline;perimeter=lifelinePerimeter;whiteSpace=wrap;html=1;container=1;collapsible=0;recursiveResize=0;outlineConnect=0;fillColor=#d5e8d4;strokeColor=#82b366;rounded=1;" vertex="1" parent="1">
          <mxGeometry x="320" y="80" width="100" height="2280" as="geometry" />
        </mxCell>
        <mxCell id="iPr5nIbGFoYJWPTCfkHv-15" value="" style="html=1;points=[];perimeter=orthogonalPerimeter;rounded=1;fillColor=#d5e8d4;strokeColor=#82b366;" vertex="1" parent="iPr5nIbGFoYJWPTCfkHv-14">
          <mxGeometry x="45" y="387" width="10" height="40" as="geometry" />
        </mxCell>
        <mxCell id="iPr5nIbGFoYJWPTCfkHv-22" value="加载OrderRefundInfo" style="html=1;verticalAlign=bottom;endArrow=block;edgeStyle=elbowEdgeStyle;elbow=vertical;curved=0;rounded=1;" edge="1" parent="1">
          <mxGeometry x="-0.2548" width="80" relative="1" as="geometry">
            <mxPoint x="-76" y="466" as="sourcePoint" />
            <mxPoint x="369.5" y="466" as="targetPoint" />
            <mxPoint as="offset" />
          </mxGeometry>
        </mxCell>
        <mxCell id="iPr5nIbGFoYJWPTCfkHv-23" value="" style="html=1;verticalAlign=bottom;endArrow=open;dashed=1;endSize=8;edgeStyle=elbowEdgeStyle;elbow=vertical;curved=0;rounded=1;" edge="1" parent="1">
          <mxGeometry relative="1" as="geometry">
            <mxPoint x="364" y="506" as="sourcePoint" />
            <mxPoint x="-75.5" y="506" as="targetPoint" />
          </mxGeometry>
        </mxCell>
        <mxCell id="iPr5nIbGFoYJWPTCfkHv-25" value="[OrderDetail == null] return null&amp;nbsp;" style="html=1;verticalAlign=bottom;endArrow=open;dashed=1;endSize=8;edgeStyle=elbowEdgeStyle;elbow=vertical;curved=0;rounded=1;" edge="1" parent="1">
          <mxGeometry x="0.0643" relative="1" as="geometry">
            <mxPoint x="-85" y="560" as="sourcePoint" />
            <mxPoint x="-319" y="560" as="targetPoint" />
            <mxPoint as="offset" />
          </mxGeometry>
        </mxCell>
        <mxCell id="iPr5nIbGFoYJWPTCfkHv-27" value="&lt;font color=&quot;#000000&quot;&gt;FltRebookDB&lt;/font&gt;" style="shape=umlLifeline;perimeter=lifelinePerimeter;whiteSpace=wrap;html=1;container=1;collapsible=0;recursiveResize=0;outlineConnect=0;fillColor=#bac8d3;strokeColor=#23445d;rounded=1;" vertex="1" parent="1">
          <mxGeometry x="510" y="80" width="100" height="2280" as="geometry" />
        </mxCell>
        <mxCell id="iPr5nIbGFoYJWPTCfkHv-28" value="" style="html=1;points=[];perimeter=orthogonalPerimeter;rounded=1;fillColor=#bac8d3;strokeColor=#23445d;" vertex="1" parent="iPr5nIbGFoYJWPTCfkHv-27">
          <mxGeometry x="45" y="599" width="10" height="40" as="geometry" />
        </mxCell>
        <mxCell id="iPr5nIbGFoYJWPTCfkHv-30" value="" style="html=1;verticalAlign=bottom;endArrow=open;dashed=1;endSize=8;edgeStyle=elbowEdgeStyle;elbow=horizontal;curved=0;rounded=1;" edge="1" parent="1">
          <mxGeometry x="-0.0003" relative="1" as="geometry">
            <mxPoint x="563.5" y="719" as="sourcePoint" />
            <mxPoint x="-76" y="719" as="targetPoint" />
            <mxPoint as="offset" />
          </mxGeometry>
        </mxCell>
        <mxCell id="iPr5nIbGFoYJWPTCfkHv-33" value="加载XOrderDetail" style="html=1;verticalAlign=bottom;endArrow=block;rounded=1;" edge="1" parent="1">
          <mxGeometry x="0.0043" width="80" relative="1" as="geometry">
            <mxPoint x="-75" y="763" as="sourcePoint" />
            <mxPoint x="160" y="763" as="targetPoint" />
            <mxPoint as="offset" />
          </mxGeometry>
        </mxCell>
        <mxCell id="iPr5nIbGFoYJWPTCfkHv-34" value="" style="html=1;verticalAlign=bottom;endArrow=open;dashed=1;endSize=8;edgeStyle=elbowEdgeStyle;elbow=horizontal;curved=0;rounded=1;" edge="1" parent="1">
          <mxGeometry x="0.001" relative="1" as="geometry">
            <mxPoint x="158" y="804" as="sourcePoint" />
            <mxPoint x="-76" y="804" as="targetPoint" />
            <mxPoint as="offset" />
          </mxGeometry>
        </mxCell>
        <mxCell id="iPr5nIbGFoYJWPTCfkHv-35" value="加载AssociatedOrder" style="html=1;verticalAlign=bottom;endArrow=block;rounded=1;entryX=0.2;entryY=0.025;entryDx=0;entryDy=0;entryPerimeter=0;" edge="1" parent="1" target="iPr5nIbGFoYJWPTCfkHv-32">
          <mxGeometry x="0.0043" width="80" relative="1" as="geometry">
            <mxPoint x="-74" y="859" as="sourcePoint" />
            <mxPoint x="150" y="859" as="targetPoint" />
            <mxPoint as="offset" />
          </mxGeometry>
        </mxCell>
        <mxCell id="iPr5nIbGFoYJWPTCfkHv-36" value="" style="html=1;verticalAlign=bottom;endArrow=open;dashed=1;endSize=8;edgeStyle=elbowEdgeStyle;elbow=vertical;curved=0;rounded=1;" edge="1" parent="1">
          <mxGeometry x="0.0025" relative="1" as="geometry">
            <mxPoint x="159" y="899" as="sourcePoint" />
            <mxPoint x="-75" y="899" as="targetPoint" />
            <mxPoint as="offset" />
          </mxGeometry>
        </mxCell>
        <mxCell id="iPr5nIbGFoYJWPTCfkHv-37" value="出票" style="shape=umlLifeline;perimeter=lifelinePerimeter;whiteSpace=wrap;html=1;container=1;collapsible=0;recursiveResize=0;outlineConnect=0;fillColor=#e1d5e7;strokeColor=#9673a6;rounded=1;" vertex="1" parent="1">
          <mxGeometry x="710" y="80" width="100" height="2280" as="geometry" />
        </mxCell>
        <mxCell id="iPr5nIbGFoYJWPTCfkHv-38" value="" style="html=1;points=[];perimeter=orthogonalPerimeter;rounded=1;fillColor=#e1d5e7;strokeColor=#9673a6;" vertex="1" parent="iPr5nIbGFoYJWPTCfkHv-37">
          <mxGeometry x="45" y="859" width="10" height="40" as="geometry" />
        </mxCell>
        <mxCell id="iPr5nIbGFoYJWPTCfkHv-39" value="加载SimpleTicketEntity" style="html=1;verticalAlign=bottom;endArrow=block;rounded=1;" edge="1" parent="1">
          <mxGeometry width="80" relative="1" as="geometry">
            <mxPoint x="-73" y="939" as="sourcePoint" />
            <mxPoint x="759.5" y="939" as="targetPoint" />
          </mxGeometry>
        </mxCell>
        <mxCell id="iPr5nIbGFoYJWPTCfkHv-40" value="" style="html=1;verticalAlign=bottom;endArrow=open;dashed=1;endSize=8;edgeStyle=elbowEdgeStyle;elbow=horizontal;curved=0;rounded=1;" edge="1" parent="1">
          <mxGeometry x="0.0001" relative="1" as="geometry">
            <mxPoint x="759.5" y="979" as="sourcePoint" />
            <mxPoint x="-75" y="979" as="targetPoint" />
            <mxPoint as="offset" />
          </mxGeometry>
        </mxCell>
        <mxCell id="g61AM5IbiB40RlU1EeOU-5" value="EndorseInquiryService" style="shape=umlLifeline;perimeter=lifelinePerimeter;whiteSpace=wrap;html=1;container=1;collapsible=0;recursiveResize=0;outlineConnect=0;fillColor=#dae8fc;strokeColor=#6c8ebf;rounded=1;" vertex="1" parent="1">
          <mxGeometry x="-626" y="80" width="130" height="2280" as="geometry" />
        </mxCell>
        <mxCell id="g61AM5IbiB40RlU1EeOU-7" value="" style="html=1;points=[];perimeter=orthogonalPerimeter;outlineConnect=0;targetShapes=umlLifeline;portConstraint=eastwest;newEdgeStyle={&quot;edgeStyle&quot;:&quot;elbowEdgeStyle&quot;,&quot;elbow&quot;:&quot;vertical&quot;,&quot;curved&quot;:0,&quot;rounded&quot;:0};rounded=1;fillColor=#b0e3e6;strokeColor=#0e8088;" vertex="1" parent="g61AM5IbiB40RlU1EeOU-5">
          <mxGeometry x="60" y="80" width="10" height="120" as="geometry" />
        </mxCell>
        <mxCell id="iPr5nIbGFoYJWPTCfkHv-4" value="" style="html=1;points=[];perimeter=orthogonalPerimeter;rounded=1;" vertex="1" parent="g61AM5IbiB40RlU1EeOU-5">
          <mxGeometry x="66" y="121" width="10" height="40" as="geometry" />
        </mxCell>
        <mxCell id="iPr5nIbGFoYJWPTCfkHv-5" value="&amp;nbsp;checkParams" style="edgeStyle=orthogonalEdgeStyle;html=1;align=left;spacingLeft=2;endArrow=block;rounded=1;entryX=1;entryY=0;" edge="1" parent="g61AM5IbiB40RlU1EeOU-5" target="iPr5nIbGFoYJWPTCfkHv-4">
          <mxGeometry relative="1" as="geometry">
            <mxPoint x="71" y="101" as="sourcePoint" />
            <Array as="points">
              <mxPoint x="101" y="101" />
            </Array>
            <mxPoint as="offset" />
          </mxGeometry>
        </mxCell>
        <mxCell id="g61AM5IbiB40RlU1EeOU-8" value="0 Parallel to check" style="html=1;verticalAlign=bottom;endArrow=block;rounded=1;entryX=0.55;entryY=0.115;entryDx=0;entryDy=0;entryPerimeter=0;" edge="1" parent="g61AM5IbiB40RlU1EeOU-5">
          <mxGeometry x="0.0026" width="80" relative="1" as="geometry">
            <mxPoint x="67" y="200" as="sourcePoint" />
            <mxPoint x="297" y="200.04999999999995" as="targetPoint" />
            <mxPoint as="offset" />
          </mxGeometry>
        </mxCell>
        <mxCell id="g61AM5IbiB40RlU1EeOU-18" value="[requestVO== null] return null&amp;nbsp;" style="html=1;verticalAlign=bottom;endArrow=open;dashed=1;endSize=8;edgeStyle=elbowEdgeStyle;elbow=vertical;curved=0;rounded=1;" edge="1" parent="g61AM5IbiB40RlU1EeOU-5">
          <mxGeometry x="-0.0256" relative="1" as="geometry">
            <mxPoint x="300" y="520" as="sourcePoint" />
            <mxPoint x="66" y="520" as="targetPoint" />
            <mxPoint as="offset" />
          </mxGeometry>
        </mxCell>
        <mxCell id="g61AM5IbiB40RlU1EeOU-6" value="" style="html=1;points=[];perimeter=orthogonalPerimeter;rounded=1;fillColor=#b0e3e6;strokeColor=#0e8088;" vertex="1" parent="g61AM5IbiB40RlU1EeOU-5">
          <mxGeometry x="60" y="520" width="10" height="40" as="geometry" />
        </mxCell>
        <mxCell id="vmFS1IPTxP4jYsqpDuVL-22" value="" style="html=1;points=[];perimeter=orthogonalPerimeter;outlineConnect=0;targetShapes=umlLifeline;portConstraint=eastwest;newEdgeStyle={&quot;edgeStyle&quot;:&quot;elbowEdgeStyle&quot;,&quot;elbow&quot;:&quot;vertical&quot;,&quot;curved&quot;:0,&quot;rounded&quot;:0};rounded=1;fillColor=#b0e3e6;strokeColor=#0e8088;" vertex="1" parent="g61AM5IbiB40RlU1EeOU-5">
          <mxGeometry x="60" y="2100" width="10" height="120" as="geometry" />
        </mxCell>
        <mxCell id="vmFS1IPTxP4jYsqpDuVL-24" value="" style="html=1;points=[];perimeter=orthogonalPerimeter;outlineConnect=0;targetShapes=umlLifeline;portConstraint=eastwest;newEdgeStyle={&quot;edgeStyle&quot;:&quot;elbowEdgeStyle&quot;,&quot;elbow&quot;:&quot;vertical&quot;,&quot;curved&quot;:0,&quot;rounded&quot;:0};rounded=1;" vertex="1" parent="g61AM5IbiB40RlU1EeOU-5">
          <mxGeometry x="65" y="2140" width="10" height="40" as="geometry" />
        </mxCell>
        <mxCell id="vmFS1IPTxP4jYsqpDuVL-25" value="10 build response" style="html=1;align=left;spacingLeft=2;endArrow=block;rounded=1;edgeStyle=orthogonalEdgeStyle;curved=0;rounded=0;" edge="1" target="vmFS1IPTxP4jYsqpDuVL-24" parent="g61AM5IbiB40RlU1EeOU-5">
          <mxGeometry relative="1" as="geometry">
            <mxPoint x="70" y="2120" as="sourcePoint" />
            <Array as="points">
              <mxPoint x="100" y="2150" />
            </Array>
          </mxGeometry>
        </mxCell>
        <mxCell id="g61AM5IbiB40RlU1EeOU-9" value="[False] ErrorResponse" style="html=1;verticalAlign=bottom;endArrow=open;dashed=1;endSize=8;edgeStyle=elbowEdgeStyle;elbow=vertical;curved=0;rounded=1;" edge="1" parent="1">
          <mxGeometry relative="1" as="geometry">
            <mxPoint x="-567" y="250" as="sourcePoint" />
            <mxPoint x="-801" y="250" as="targetPoint" />
          </mxGeometry>
        </mxCell>
        <mxCell id="g61AM5IbiB40RlU1EeOU-19" value="[ResponseMap == null] ErrorResponse" style="html=1;verticalAlign=bottom;endArrow=open;dashed=1;endSize=8;edgeStyle=elbowEdgeStyle;elbow=vertical;curved=0;rounded=1;" edge="1" parent="1">
          <mxGeometry x="0.004" relative="1" as="geometry">
            <mxPoint x="-566" y="640" as="sourcePoint" />
            <mxPoint x="-800" y="640" as="targetPoint" />
            <mxPoint as="offset" />
          </mxGeometry>
        </mxCell>
        <mxCell id="QJuXcNw7wFdoZ7rtJz3L-6" value="Alt" style="shape=umlFrame;whiteSpace=wrap;html=1;pointerEvents=0;rounded=1;" vertex="1" parent="1">
          <mxGeometry x="-475" y="1180" width="1715" height="760" as="geometry" />
        </mxCell>
        <mxCell id="QJuXcNw7wFdoZ7rtJz3L-9" value="&lt;span style=&quot;font-family: Helvetica; font-size: 11px; font-style: normal; font-variant-ligatures: normal; font-variant-caps: normal; letter-spacing: normal; orphans: 2; text-align: center; text-indent: 0px; text-transform: none; widows: 2; word-spacing: 0px; -webkit-text-stroke-width: 0px; background-color: rgb(255, 255, 255); text-decoration-thickness: initial; text-decoration-style: initial; text-decoration-color: initial; float: none; display: inline !important;&quot;&gt;&lt;b style=&quot;&quot;&gt;&lt;font color=&quot;#ff0000&quot;&gt;[UnRebookCode == 0]&amp;nbsp;&lt;/font&gt;&lt;/b&gt;&lt;/span&gt;" style="text;whiteSpace=wrap;html=1;rounded=1;" vertex="1" parent="1">
          <mxGeometry x="-470" y="1230" width="140" height="30" as="geometry" />
        </mxCell>
        <mxCell id="QJuXcNw7wFdoZ7rtJz3L-10" value="" style="html=1;points=[];perimeter=orthogonalPerimeter;outlineConnect=0;targetShapes=umlLifeline;portConstraint=eastwest;newEdgeStyle={&quot;edgeStyle&quot;:&quot;elbowEdgeStyle&quot;,&quot;elbow&quot;:&quot;vertical&quot;,&quot;curved&quot;:0,&quot;rounded&quot;:0};rounded=1;fillColor=#60a917;strokeColor=#2D7600;fontColor=#ffffff;" vertex="1" parent="1">
          <mxGeometry x="-85" y="1240" width="10" height="360" as="geometry" />
        </mxCell>
        <mxCell id="QJuXcNw7wFdoZ7rtJz3L-11" value="4 并行加载依赖信息" style="html=1;verticalAlign=bottom;endArrow=block;rounded=1;entryX=-0.25;entryY=-0.001;entryDx=0;entryDy=0;entryPerimeter=0;" edge="1" parent="1">
          <mxGeometry x="0.0043" width="80" relative="1" as="geometry">
            <mxPoint x="-320" y="1239.08" as="sourcePoint" />
            <mxPoint x="-85" y="1239" as="targetPoint" />
            <mxPoint as="offset" />
          </mxGeometry>
        </mxCell>
        <mxCell id="QJuXcNw7wFdoZ7rtJz3L-12" value="Par" style="shape=umlFrame;whiteSpace=wrap;html=1;pointerEvents=0;rounded=1;" vertex="1" parent="1">
          <mxGeometry x="-200" y="1265" width="1400" height="295" as="geometry" />
        </mxCell>
        <mxCell id="QJuXcNw7wFdoZ7rtJz3L-14" value="加载票号信息" style="html=1;verticalAlign=bottom;endArrow=block;rounded=1;" edge="1" parent="1" target="QJuXcNw7wFdoZ7rtJz3L-15">
          <mxGeometry x="0.0029" width="80" relative="1" as="geometry">
            <mxPoint x="-75" y="1296.2" as="sourcePoint" />
            <mxPoint x="154.34000000000015" y="1295" as="targetPoint" />
            <mxPoint as="offset" />
          </mxGeometry>
        </mxCell>
        <mxCell id="QJuXcNw7wFdoZ7rtJz3L-15" value="" style="html=1;points=[];perimeter=orthogonalPerimeter;outlineConnect=0;targetShapes=umlLifeline;portConstraint=eastwest;newEdgeStyle={&quot;edgeStyle&quot;:&quot;elbowEdgeStyle&quot;,&quot;elbow&quot;:&quot;vertical&quot;,&quot;curved&quot;:0,&quot;rounded&quot;:0};rounded=1;fillColor=#e1d5e7;strokeColor=#9673a6;" vertex="1" parent="1">
          <mxGeometry x="755" y="1295" width="10" height="40" as="geometry" />
        </mxCell>
        <mxCell id="QJuXcNw7wFdoZ7rtJz3L-17" value="" style="html=1;verticalAlign=bottom;endArrow=open;dashed=1;endSize=8;edgeStyle=elbowEdgeStyle;elbow=vertical;curved=0;rounded=1;" edge="1" parent="1">
          <mxGeometry x="0.0007" relative="1" as="geometry">
            <mxPoint x="759" y="1335" as="sourcePoint" />
            <mxPoint x="-75.5" y="1335" as="targetPoint" />
            <mxPoint as="offset" />
          </mxGeometry>
        </mxCell>
        <mxCell id="QJuXcNw7wFdoZ7rtJz3L-18" value="" style="endArrow=none;dashed=1;html=1;rounded=1;entryX=1.001;entryY=0.358;entryDx=0;entryDy=0;entryPerimeter=0;dashPattern=1 4;" edge="1" parent="1" target="QJuXcNw7wFdoZ7rtJz3L-12">
          <mxGeometry width="50" height="50" relative="1" as="geometry">
            <mxPoint x="-200" y="1360" as="sourcePoint" />
            <mxPoint x="-150" y="1310" as="targetPoint" />
          </mxGeometry>
        </mxCell>
        <mxCell id="QJuXcNw7wFdoZ7rtJz3L-19" value="" style="endArrow=none;dashed=1;html=1;rounded=1;entryX=0.999;entryY=0.648;entryDx=0;entryDy=0;entryPerimeter=0;dashPattern=1 4;" edge="1" parent="1" target="QJuXcNw7wFdoZ7rtJz3L-12">
          <mxGeometry width="50" height="50" relative="1" as="geometry">
            <mxPoint x="-200" y="1454" as="sourcePoint" />
            <mxPoint x="1041.2399999999998" y="1454.96" as="targetPoint" />
          </mxGeometry>
        </mxCell>
        <mxCell id="QJuXcNw7wFdoZ7rtJz3L-20" value="航变" style="shape=umlLifeline;perimeter=lifelinePerimeter;whiteSpace=wrap;html=1;container=1;collapsible=0;recursiveResize=0;outlineConnect=0;fillColor=#f8cecc;strokeColor=#b85450;rounded=1;" vertex="1" parent="1">
          <mxGeometry x="900" y="80" width="100" height="2280" as="geometry" />
        </mxCell>
        <mxCell id="QJuXcNw7wFdoZ7rtJz3L-21" value="" style="html=1;points=[];perimeter=orthogonalPerimeter;rounded=1;fillColor=#f8cecc;strokeColor=#b85450;" vertex="1" parent="QJuXcNw7wFdoZ7rtJz3L-20">
          <mxGeometry x="45" y="1309" width="10" height="40" as="geometry" />
        </mxCell>
        <mxCell id="QJuXcNw7wFdoZ7rtJz3L-22" value="加载航变信息" style="html=1;verticalAlign=bottom;endArrow=block;rounded=1;" edge="1" parent="1" target="QJuXcNw7wFdoZ7rtJz3L-20">
          <mxGeometry x="0.0029" width="80" relative="1" as="geometry">
            <mxPoint x="-75" y="1390.2" as="sourcePoint" />
            <mxPoint x="755" y="1390" as="targetPoint" />
            <mxPoint as="offset" />
          </mxGeometry>
        </mxCell>
        <mxCell id="QJuXcNw7wFdoZ7rtJz3L-23" value="" style="html=1;verticalAlign=bottom;endArrow=open;dashed=1;endSize=8;edgeStyle=elbowEdgeStyle;elbow=vertical;curved=0;rounded=1;" edge="1" parent="1" source="QJuXcNw7wFdoZ7rtJz3L-20">
          <mxGeometry x="-0.0011" relative="1" as="geometry">
            <mxPoint x="759.75" y="1430" as="sourcePoint" />
            <mxPoint x="-74.75" y="1430" as="targetPoint" />
            <mxPoint as="offset" />
          </mxGeometry>
        </mxCell>
        <mxCell id="QJuXcNw7wFdoZ7rtJz3L-25" value="return" style="html=1;verticalAlign=bottom;endArrow=open;dashed=1;endSize=8;edgeStyle=elbowEdgeStyle;elbow=vertical;curved=0;rounded=1;" edge="1" parent="1">
          <mxGeometry relative="1" as="geometry">
            <mxPoint x="-85" y="1600" as="sourcePoint" />
            <mxPoint x="-319" y="1600" as="targetPoint" />
          </mxGeometry>
        </mxCell>
        <mxCell id="QJuXcNw7wFdoZ7rtJz3L-26" value="" style="html=1;points=[];perimeter=orthogonalPerimeter;outlineConnect=0;targetShapes=umlLifeline;portConstraint=eastwest;newEdgeStyle={&quot;edgeStyle&quot;:&quot;elbowEdgeStyle&quot;,&quot;elbow&quot;:&quot;vertical&quot;,&quot;curved&quot;:0,&quot;rounded&quot;:0};rounded=1;" vertex="1" parent="1">
          <mxGeometry x="-325" y="1660" width="10" height="40" as="geometry" />
        </mxCell>
        <mxCell id="vmFS1IPTxP4jYsqpDuVL-3" style="edgeStyle=orthogonalEdgeStyle;rounded=1;orthogonalLoop=1;jettySize=auto;html=1;" edge="1" parent="1" source="vmFS1IPTxP4jYsqpDuVL-1">
          <mxGeometry relative="1" as="geometry">
            <mxPoint x="-250" y="1650" as="targetPoint" />
          </mxGeometry>
        </mxCell>
        <mxCell id="QJuXcNw7wFdoZ7rtJz3L-27" value="5 可改校验" style="html=1;align=left;spacingLeft=2;endArrow=block;rounded=1;edgeStyle=orthogonalEdgeStyle;curved=0;rounded=0;" edge="1" target="QJuXcNw7wFdoZ7rtJz3L-26" parent="1">
          <mxGeometry relative="1" as="geometry">
            <mxPoint x="-320" y="1640" as="sourcePoint" />
            <Array as="points">
              <mxPoint x="-290" y="1670" />
            </Array>
          </mxGeometry>
        </mxCell>
        <mxCell id="vmFS1IPTxP4jYsqpDuVL-1" value="1. 改签中校验&lt;br&gt;2.退款中 &amp;amp; 已退款校验&lt;br&gt;3.&amp;nbsp;票号状态校验" style="shape=note;size=20;whiteSpace=wrap;html=1;fillColor=#fff2cc;strokeColor=#d6b656;align=left;rounded=1;" vertex="1" parent="1">
          <mxGeometry x="-200" y="1620" width="130" height="60" as="geometry" />
        </mxCell>
        <mxCell id="vmFS1IPTxP4jYsqpDuVL-4" value="" style="html=1;points=[];perimeter=orthogonalPerimeter;outlineConnect=0;targetShapes=umlLifeline;portConstraint=eastwest;newEdgeStyle={&quot;edgeStyle&quot;:&quot;elbowEdgeStyle&quot;,&quot;elbow&quot;:&quot;vertical&quot;,&quot;curved&quot;:0,&quot;rounded&quot;:0};rounded=1;" vertex="1" parent="1">
          <mxGeometry x="-325" y="1760" width="10" height="40" as="geometry" />
        </mxCell>
        <mxCell id="vmFS1IPTxP4jYsqpDuVL-6" value="" style="html=1;points=[];perimeter=orthogonalPerimeter;outlineConnect=0;targetShapes=umlLifeline;portConstraint=eastwest;newEdgeStyle={&quot;edgeStyle&quot;:&quot;elbowEdgeStyle&quot;,&quot;elbow&quot;:&quot;vertical&quot;,&quot;curved&quot;:0,&quot;rounded&quot;:0};rounded=1;" vertex="1" parent="1">
          <mxGeometry x="-325" y="1860" width="10" height="40" as="geometry" />
        </mxCell>
        <mxCell id="vmFS1IPTxP4jYsqpDuVL-5" value="6 可改类型校验" style="html=1;align=left;spacingLeft=2;endArrow=block;rounded=1;edgeStyle=orthogonalEdgeStyle;curved=0;rounded=0;" edge="1" target="vmFS1IPTxP4jYsqpDuVL-4" parent="1">
          <mxGeometry relative="1" as="geometry">
            <mxPoint x="-320" y="1740" as="sourcePoint" />
            <Array as="points">
              <mxPoint x="-290" y="1770" />
            </Array>
            <mxPoint as="offset" />
          </mxGeometry>
        </mxCell>
        <mxCell id="vmFS1IPTxP4jYsqpDuVL-11" style="edgeStyle=orthogonalEdgeStyle;rounded=1;orthogonalLoop=1;jettySize=auto;html=1;" edge="1" parent="1" source="vmFS1IPTxP4jYsqpDuVL-8">
          <mxGeometry relative="1" as="geometry">
            <mxPoint x="-210" y="1855" as="targetPoint" />
          </mxGeometry>
        </mxCell>
        <mxCell id="vmFS1IPTxP4jYsqpDuVL-7" value="7 不可改类型检查" style="html=1;align=left;spacingLeft=2;endArrow=block;rounded=1;edgeStyle=orthogonalEdgeStyle;curved=0;rounded=0;" edge="1" target="vmFS1IPTxP4jYsqpDuVL-6" parent="1">
          <mxGeometry relative="1" as="geometry">
            <mxPoint x="-320" y="1840" as="sourcePoint" />
            <Array as="points">
              <mxPoint x="-290" y="1870" />
            </Array>
            <mxPoint as="offset" />
          </mxGeometry>
        </mxCell>
        <mxCell id="vmFS1IPTxP4jYsqpDuVL-8" value="人程不能自愿改、不能航变免费改、不能退票另订改、不能大修改检查" style="shape=note;size=20;whiteSpace=wrap;html=1;fillColor=#fff2cc;strokeColor=#d6b656;align=left;rounded=1;" vertex="1" parent="1">
          <mxGeometry x="-150.5" y="1845" width="140" height="70" as="geometry" />
        </mxCell>
        <mxCell id="vmFS1IPTxP4jYsqpDuVL-12" value="1.&amp;nbsp;取消留用校验&lt;br&gt;2.自愿改签校验&lt;br&gt;3.&amp;nbsp;小团、部分航司是否可改校验&lt;br&gt;4.航变改签校验&lt;br&gt;5.&amp;nbsp;国内票号换开改签校验&lt;br&gt;6.特殊事件校验&lt;br&gt;7.退票另订校验&lt;br&gt;8.行程修改校验&lt;br&gt;9.票号有效期校验&lt;br&gt;10.校验是否有原始附加金额&lt;br&gt;11.订单产品信息检查" style="shape=note;size=20;whiteSpace=wrap;html=1;fillColor=#fff2cc;strokeColor=#d6b656;align=left;rounded=1;" vertex="1" parent="1">
          <mxGeometry x="-50" y="1640" width="190" height="170" as="geometry" />
        </mxCell>
        <mxCell id="vmFS1IPTxP4jYsqpDuVL-16" value="" style="html=1;points=[];perimeter=orthogonalPerimeter;outlineConnect=0;targetShapes=umlLifeline;portConstraint=eastwest;newEdgeStyle={&quot;edgeStyle&quot;:&quot;elbowEdgeStyle&quot;,&quot;elbow&quot;:&quot;vertical&quot;,&quot;curved&quot;:0,&quot;rounded&quot;:0};rounded=1;" vertex="1" parent="1">
          <mxGeometry x="-325" y="2000" width="10" height="40" as="geometry" />
        </mxCell>
        <mxCell id="vmFS1IPTxP4jYsqpDuVL-17" value="8 是否可关联订单&lt;br&gt;一起改校验" style="html=1;align=left;spacingLeft=2;endArrow=block;rounded=1;edgeStyle=orthogonalEdgeStyle;curved=0;rounded=0;" edge="1" target="vmFS1IPTxP4jYsqpDuVL-16" parent="1">
          <mxGeometry relative="1" as="geometry">
            <mxPoint x="-320" y="1980" as="sourcePoint" />
            <Array as="points">
              <mxPoint x="-290" y="2010" />
            </Array>
          </mxGeometry>
        </mxCell>
        <mxCell id="vmFS1IPTxP4jYsqpDuVL-23" value="single order check result" style="html=1;verticalAlign=bottom;endArrow=open;dashed=1;endSize=8;edgeStyle=elbowEdgeStyle;elbow=vertical;curved=0;rounded=1;" edge="1" parent="1">
          <mxGeometry x="0.004" relative="1" as="geometry">
            <mxPoint x="-325" y="2180" as="sourcePoint" />
            <mxPoint x="-559" y="2180" as="targetPoint" />
            <mxPoint as="offset" />
          </mxGeometry>
        </mxCell>
        <mxCell id="vmFS1IPTxP4jYsqpDuVL-26" value="SuccessResponse" style="html=1;verticalAlign=bottom;endArrow=open;dashed=1;endSize=8;edgeStyle=elbowEdgeStyle;elbow=vertical;curved=0;rounded=1;" edge="1" parent="1">
          <mxGeometry relative="1" as="geometry">
            <mxPoint x="-567" y="2300" as="sourcePoint" />
            <mxPoint x="-801" y="2300" as="targetPoint" />
          </mxGeometry>
        </mxCell>
        <mxCell id="vmFS1IPTxP4jYsqpDuVL-28" value="国际政策" style="shape=umlLifeline;perimeter=lifelinePerimeter;whiteSpace=wrap;html=1;container=1;collapsible=0;recursiveResize=0;outlineConnect=0;fillColor=#fad7ac;strokeColor=#b46504;rounded=1;" vertex="1" parent="1">
          <mxGeometry x="1090" y="80" width="100" height="2280" as="geometry" />
        </mxCell>
        <mxCell id="vmFS1IPTxP4jYsqpDuVL-29" value="" style="html=1;points=[];perimeter=orthogonalPerimeter;rounded=1;fillColor=#ffe6cc;strokeColor=#d79b00;" vertex="1" parent="vmFS1IPTxP4jYsqpDuVL-28">
          <mxGeometry x="45" y="1410" width="10" height="40" as="geometry" />
        </mxCell>
        <mxCell id="vmFS1IPTxP4jYsqpDuVL-30" value="加载退改计算信息" style="html=1;verticalAlign=bottom;endArrow=block;rounded=1;" edge="1" parent="1" target="vmFS1IPTxP4jYsqpDuVL-28">
          <mxGeometry x="0.0025" width="80" relative="1" as="geometry">
            <mxPoint x="-75" y="1490.2" as="sourcePoint" />
            <mxPoint x="949" y="1490" as="targetPoint" />
            <mxPoint as="offset" />
          </mxGeometry>
        </mxCell>
        <mxCell id="vmFS1IPTxP4jYsqpDuVL-31" value="" style="html=1;verticalAlign=bottom;endArrow=open;dashed=1;endSize=8;edgeStyle=elbowEdgeStyle;elbow=vertical;curved=0;rounded=1;" edge="1" parent="1" source="vmFS1IPTxP4jYsqpDuVL-28">
          <mxGeometry x="-0.0004" relative="1" as="geometry">
            <mxPoint x="953.75" y="1530" as="sourcePoint" />
            <mxPoint x="-70" y="1530" as="targetPoint" />
            <mxPoint as="offset" />
          </mxGeometry>
        </mxCell>
      </root>
    </mxGraphModel>
  </diagram>
  <diagram id="zghkN0Z1I4gq_-lIHPVS" name="第 3 页">
    <mxGraphModel dx="1404" dy="764" grid="1" gridSize="10" guides="1" tooltips="1" connect="1" arrows="1" fold="1" page="1" pageScale="1" pageWidth="827" pageHeight="1169" math="0" shadow="0">
      <root>
        <mxCell id="0" />
        <mxCell id="1" parent="0" />
        <mxCell id="0UDWt0lQBQT8u0b03O7q-12" value="ConditionService" style="swimlane;fontStyle=0;childLayout=stackLayout;horizontal=1;startSize=26;fillColor=none;horizontalStack=0;resizeParent=1;resizeParentMax=0;resizeLast=0;collapsible=1;marginBottom=0;whiteSpace=wrap;html=1;" vertex="1" parent="1">
          <mxGeometry x="70" y="130" width="240" height="60" as="geometry" />
        </mxCell>
        <mxCell id="0UDWt0lQBQT8u0b03O7q-13" value="+ condition&lt;span style=&quot;background-color: initial;&quot;&gt;:&amp;nbsp;&lt;/span&gt;ConditionResponse" style="text;strokeColor=none;fillColor=none;align=left;verticalAlign=top;spacingLeft=4;spacingRight=4;overflow=hidden;rotatable=0;points=[[0,0.5],[1,0.5]];portConstraint=eastwest;whiteSpace=wrap;html=1;" vertex="1" parent="0UDWt0lQBQT8u0b03O7q-12">
          <mxGeometry y="26" width="240" height="34" as="geometry" />
        </mxCell>
        <mxCell id="0UDWt0lQBQT8u0b03O7q-16" value="NewEndorseInquiryIntegrationService" style="swimlane;fontStyle=1;align=center;verticalAlign=top;childLayout=stackLayout;horizontal=1;startSize=26;horizontalStack=0;resizeParent=1;resizeParentMax=0;resizeLast=0;collapsible=1;marginBottom=0;whiteSpace=wrap;html=1;" vertex="1" parent="1">
          <mxGeometry x="960" y="200" width="320" height="86" as="geometry" />
        </mxCell>
        <mxCell id="0UDWt0lQBQT8u0b03O7q-17" value="+ endorseInquiry(request): NewEndorseInquiryResponse" style="text;strokeColor=none;fillColor=none;align=left;verticalAlign=top;spacingLeft=4;spacingRight=4;overflow=hidden;rotatable=0;points=[[0,0.5],[1,0.5]];portConstraint=eastwest;whiteSpace=wrap;html=1;" vertex="1" parent="0UDWt0lQBQT8u0b03O7q-16">
          <mxGeometry y="26" width="320" height="26" as="geometry" />
        </mxCell>
        <mxCell id="0UDWt0lQBQT8u0b03O7q-18" value="" style="line;strokeWidth=1;fillColor=none;align=left;verticalAlign=middle;spacingTop=-1;spacingLeft=3;spacingRight=3;rotatable=0;labelPosition=right;points=[];portConstraint=eastwest;strokeColor=inherit;" vertex="1" parent="0UDWt0lQBQT8u0b03O7q-16">
          <mxGeometry y="52" width="320" height="8" as="geometry" />
        </mxCell>
        <mxCell id="0UDWt0lQBQT8u0b03O7q-19" value="# invoke(request): NewEndorseInquiryResponse" style="text;strokeColor=none;fillColor=none;align=left;verticalAlign=top;spacingLeft=4;spacingRight=4;overflow=hidden;rotatable=0;points=[[0,0.5],[1,0.5]];portConstraint=eastwest;whiteSpace=wrap;html=1;" vertex="1" parent="0UDWt0lQBQT8u0b03O7q-16">
          <mxGeometry y="60" width="320" height="26" as="geometry" />
        </mxCell>
        <mxCell id="0UDWt0lQBQT8u0b03O7q-21" value="EndorseInquiryService" style="swimlane;fontStyle=1;align=center;verticalAlign=top;childLayout=stackLayout;horizontal=1;startSize=26;horizontalStack=0;resizeParent=1;resizeParentMax=0;resizeLast=0;collapsible=1;marginBottom=0;whiteSpace=wrap;html=1;" vertex="1" parent="1">
          <mxGeometry x="560" y="360" width="320" height="120" as="geometry" />
        </mxCell>
        <mxCell id="0UDWt0lQBQT8u0b03O7q-22" value="+ endorseInquiry(): void" style="text;strokeColor=none;fillColor=none;align=left;verticalAlign=top;spacingLeft=4;spacingRight=4;overflow=hidden;rotatable=0;points=[[0,0.5],[1,0.5]];portConstraint=eastwest;whiteSpace=wrap;html=1;" vertex="1" parent="0UDWt0lQBQT8u0b03O7q-21">
          <mxGeometry y="26" width="320" height="26" as="geometry" />
        </mxCell>
        <mxCell id="0UDWt0lQBQT8u0b03O7q-23" value="" style="line;strokeWidth=1;fillColor=none;align=left;verticalAlign=middle;spacingTop=-1;spacingLeft=3;spacingRight=3;rotatable=0;labelPosition=right;points=[];portConstraint=eastwest;strokeColor=inherit;" vertex="1" parent="0UDWt0lQBQT8u0b03O7q-21">
          <mxGeometry y="52" width="320" height="8" as="geometry" />
        </mxCell>
        <mxCell id="0UDWt0lQBQT8u0b03O7q-24" value="- requestHandler(request): NewEndorseInquiryRequest" style="text;strokeColor=none;fillColor=none;align=left;verticalAlign=top;spacingLeft=4;spacingRight=4;overflow=hidden;rotatable=0;points=[[0,0.5],[1,0.5]];portConstraint=eastwest;whiteSpace=wrap;html=1;" vertex="1" parent="0UDWt0lQBQT8u0b03O7q-21">
          <mxGeometry y="60" width="320" height="30" as="geometry" />
        </mxCell>
        <mxCell id="0UDWt0lQBQT8u0b03O7q-29" value="- responseHandler(response): EndorseInquiryResponse" style="text;strokeColor=none;fillColor=none;align=left;verticalAlign=top;spacingLeft=4;spacingRight=4;overflow=hidden;rotatable=0;points=[[0,0.5],[1,0.5]];portConstraint=eastwest;whiteSpace=wrap;html=1;" vertex="1" parent="0UDWt0lQBQT8u0b03O7q-21">
          <mxGeometry y="90" width="320" height="30" as="geometry" />
        </mxCell>
        <mxCell id="0UDWt0lQBQT8u0b03O7q-26" value="&lt;i&gt;EndorseInquiryAdapter&lt;/i&gt;" style="swimlane;fontStyle=0;childLayout=stackLayout;horizontal=1;startSize=26;fillColor=none;horizontalStack=0;resizeParent=1;resizeParentMax=0;resizeLast=0;collapsible=1;marginBottom=0;whiteSpace=wrap;html=1;" vertex="1" parent="1">
          <mxGeometry x="430" y="200" width="200" height="60" as="geometry" />
        </mxCell>
        <mxCell id="0UDWt0lQBQT8u0b03O7q-27" value="&lt;i&gt;+ endorseInquiry()&lt;span style=&quot;background-color: initial;&quot;&gt;:&amp;nbsp;&lt;/span&gt;void&lt;/i&gt;" style="text;strokeColor=none;fillColor=none;align=left;verticalAlign=top;spacingLeft=4;spacingRight=4;overflow=hidden;rotatable=0;points=[[0,0.5],[1,0.5]];portConstraint=eastwest;whiteSpace=wrap;html=1;" vertex="1" parent="0UDWt0lQBQT8u0b03O7q-26">
          <mxGeometry y="26" width="200" height="34" as="geometry" />
        </mxCell>
        <mxCell id="0UDWt0lQBQT8u0b03O7q-28" style="edgeStyle=orthogonalEdgeStyle;rounded=0;orthogonalLoop=1;jettySize=auto;html=1;entryX=0;entryY=0.5;entryDx=0;entryDy=0;" edge="1" parent="1" source="0UDWt0lQBQT8u0b03O7q-13" target="0UDWt0lQBQT8u0b03O7q-27">
          <mxGeometry relative="1" as="geometry" />
        </mxCell>
        <mxCell id="0UDWt0lQBQT8u0b03O7q-30" value="ConditionService" style="swimlane;fontStyle=1;align=center;verticalAlign=top;childLayout=stackLayout;horizontal=1;startSize=26;horizontalStack=0;resizeParent=1;resizeParentMax=0;resizeLast=0;collapsible=1;marginBottom=0;whiteSpace=wrap;html=1;" vertex="1" parent="1">
          <mxGeometry x="560" y="520" width="320" height="120" as="geometry" />
        </mxCell>
        <mxCell id="0UDWt0lQBQT8u0b03O7q-59" style="edgeStyle=orthogonalEdgeStyle;rounded=0;orthogonalLoop=1;jettySize=auto;html=1;endArrow=block;endFill=0;" edge="1" parent="0UDWt0lQBQT8u0b03O7q-30" source="0UDWt0lQBQT8u0b03O7q-31">
          <mxGeometry relative="1" as="geometry">
            <mxPoint x="-60" y="-260" as="targetPoint" />
          </mxGeometry>
        </mxCell>
        <mxCell id="0UDWt0lQBQT8u0b03O7q-31" value="+ endorseInquiry(): void" style="text;strokeColor=none;fillColor=none;align=left;verticalAlign=top;spacingLeft=4;spacingRight=4;overflow=hidden;rotatable=0;points=[[0,0.5],[1,0.5]];portConstraint=eastwest;whiteSpace=wrap;html=1;" vertex="1" parent="0UDWt0lQBQT8u0b03O7q-30">
          <mxGeometry y="26" width="320" height="26" as="geometry" />
        </mxCell>
        <mxCell id="0UDWt0lQBQT8u0b03O7q-32" value="" style="line;strokeWidth=1;fillColor=none;align=left;verticalAlign=middle;spacingTop=-1;spacingLeft=3;spacingRight=3;rotatable=0;labelPosition=right;points=[];portConstraint=eastwest;strokeColor=inherit;" vertex="1" parent="0UDWt0lQBQT8u0b03O7q-30">
          <mxGeometry y="52" width="320" height="8" as="geometry" />
        </mxCell>
        <mxCell id="0UDWt0lQBQT8u0b03O7q-33" value="- requestHandler(request): NewEndorseInquiryRequest" style="text;strokeColor=none;fillColor=none;align=left;verticalAlign=top;spacingLeft=4;spacingRight=4;overflow=hidden;rotatable=0;points=[[0,0.5],[1,0.5]];portConstraint=eastwest;whiteSpace=wrap;html=1;" vertex="1" parent="0UDWt0lQBQT8u0b03O7q-30">
          <mxGeometry y="60" width="320" height="30" as="geometry" />
        </mxCell>
        <mxCell id="0UDWt0lQBQT8u0b03O7q-34" value="- responseHandler(response): ConditionResponse" style="text;strokeColor=none;fillColor=none;align=left;verticalAlign=top;spacingLeft=4;spacingRight=4;overflow=hidden;rotatable=0;points=[[0,0.5],[1,0.5]];portConstraint=eastwest;whiteSpace=wrap;html=1;" vertex="1" parent="0UDWt0lQBQT8u0b03O7q-30">
          <mxGeometry y="90" width="320" height="30" as="geometry" />
        </mxCell>
        <mxCell id="0UDWt0lQBQT8u0b03O7q-54" style="edgeStyle=orthogonalEdgeStyle;rounded=0;orthogonalLoop=1;jettySize=auto;html=1;entryX=0.35;entryY=1.029;entryDx=0;entryDy=0;entryPerimeter=0;endArrow=block;endFill=0;" edge="1" parent="1" source="0UDWt0lQBQT8u0b03O7q-22" target="0UDWt0lQBQT8u0b03O7q-27">
          <mxGeometry relative="1" as="geometry" />
        </mxCell>
        <mxCell id="0UDWt0lQBQT8u0b03O7q-56" style="edgeStyle=orthogonalEdgeStyle;rounded=0;orthogonalLoop=1;jettySize=auto;html=1;entryX=0;entryY=0.5;entryDx=0;entryDy=0;" edge="1" parent="1" source="0UDWt0lQBQT8u0b03O7q-22" target="0UDWt0lQBQT8u0b03O7q-17">
          <mxGeometry relative="1" as="geometry" />
        </mxCell>
        <mxCell id="0UDWt0lQBQT8u0b03O7q-61" style="edgeStyle=orthogonalEdgeStyle;rounded=0;orthogonalLoop=1;jettySize=auto;html=1;entryX=0;entryY=0.5;entryDx=0;entryDy=0;" edge="1" parent="1" source="0UDWt0lQBQT8u0b03O7q-31" target="0UDWt0lQBQT8u0b03O7q-17">
          <mxGeometry relative="1" as="geometry" />
        </mxCell>
        <mxCell id="0UDWt0lQBQT8u0b03O7q-62" value="EndorseInquiryService" style="swimlane;fontStyle=0;childLayout=stackLayout;horizontal=1;startSize=26;fillColor=none;horizontalStack=0;resizeParent=1;resizeParentMax=0;resizeLast=0;collapsible=1;marginBottom=0;whiteSpace=wrap;html=1;" vertex="1" parent="1">
          <mxGeometry x="70" y="290" width="240" height="60" as="geometry" />
        </mxCell>
        <mxCell id="0UDWt0lQBQT8u0b03O7q-63" value="+endorseInquiry&lt;span style=&quot;background-color: initial;&quot;&gt;:&amp;nbsp;&lt;/span&gt;EndorseInquiryResponse" style="text;strokeColor=none;fillColor=none;align=left;verticalAlign=top;spacingLeft=4;spacingRight=4;overflow=hidden;rotatable=0;points=[[0,0.5],[1,0.5]];portConstraint=eastwest;whiteSpace=wrap;html=1;" vertex="1" parent="0UDWt0lQBQT8u0b03O7q-62">
          <mxGeometry y="26" width="240" height="34" as="geometry" />
        </mxCell>
        <mxCell id="0UDWt0lQBQT8u0b03O7q-65" style="edgeStyle=orthogonalEdgeStyle;rounded=0;orthogonalLoop=1;jettySize=auto;html=1;entryX=0;entryY=0.5;entryDx=0;entryDy=0;" edge="1" parent="1" source="0UDWt0lQBQT8u0b03O7q-63" target="0UDWt0lQBQT8u0b03O7q-27">
          <mxGeometry relative="1" as="geometry" />
        </mxCell>
        <mxCell id="FAGHmOxI_XLTzO8REsY1-1" value="ConditionService" style="swimlane;fontStyle=0;childLayout=stackLayout;horizontal=1;startSize=26;fillColor=none;horizontalStack=0;resizeParent=1;resizeParentMax=0;resizeLast=0;collapsible=1;marginBottom=0;whiteSpace=wrap;html=1;" vertex="1" parent="1">
          <mxGeometry x="70" y="1210" width="300" height="60" as="geometry" />
        </mxCell>
        <mxCell id="FAGHmOxI_XLTzO8REsY1-2" value="+ condition(Request)&lt;span style=&quot;background-color: initial;&quot;&gt;:&amp;nbsp;&lt;/span&gt;ConditionResponse" style="text;strokeColor=none;fillColor=none;align=left;verticalAlign=top;spacingLeft=4;spacingRight=4;overflow=hidden;rotatable=0;points=[[0,0.5],[1,0.5]];portConstraint=eastwest;whiteSpace=wrap;html=1;" vertex="1" parent="FAGHmOxI_XLTzO8REsY1-1">
          <mxGeometry y="26" width="300" height="34" as="geometry" />
        </mxCell>
        <mxCell id="FAGHmOxI_XLTzO8REsY1-3" value="NewEndorseInquiryIntegrationService" style="swimlane;fontStyle=1;align=center;verticalAlign=top;childLayout=stackLayout;horizontal=1;startSize=26;horizontalStack=0;resizeParent=1;resizeParentMax=0;resizeLast=0;collapsible=1;marginBottom=0;whiteSpace=wrap;html=1;" vertex="1" parent="1">
          <mxGeometry x="1150" y="1280" width="320" height="86" as="geometry" />
        </mxCell>
        <mxCell id="FAGHmOxI_XLTzO8REsY1-4" value="+ endorseInquiry(Request): NewEndorseInquiryResponse" style="text;strokeColor=none;fillColor=none;align=left;verticalAlign=top;spacingLeft=4;spacingRight=4;overflow=hidden;rotatable=0;points=[[0,0.5],[1,0.5]];portConstraint=eastwest;whiteSpace=wrap;html=1;" vertex="1" parent="FAGHmOxI_XLTzO8REsY1-3">
          <mxGeometry y="26" width="320" height="26" as="geometry" />
        </mxCell>
        <mxCell id="FAGHmOxI_XLTzO8REsY1-5" value="" style="line;strokeWidth=1;fillColor=none;align=left;verticalAlign=middle;spacingTop=-1;spacingLeft=3;spacingRight=3;rotatable=0;labelPosition=right;points=[];portConstraint=eastwest;strokeColor=inherit;" vertex="1" parent="FAGHmOxI_XLTzO8REsY1-3">
          <mxGeometry y="52" width="320" height="8" as="geometry" />
        </mxCell>
        <mxCell id="FAGHmOxI_XLTzO8REsY1-6" value="# invoke(Request): NewEndorseInquiryResponse" style="text;strokeColor=none;fillColor=none;align=left;verticalAlign=top;spacingLeft=4;spacingRight=4;overflow=hidden;rotatable=0;points=[[0,0.5],[1,0.5]];portConstraint=eastwest;whiteSpace=wrap;html=1;" vertex="1" parent="FAGHmOxI_XLTzO8REsY1-3">
          <mxGeometry y="60" width="320" height="26" as="geometry" />
        </mxCell>
        <mxCell id="FAGHmOxI_XLTzO8REsY1-7" value="EndorseInquiryService" style="swimlane;fontStyle=1;align=center;verticalAlign=top;childLayout=stackLayout;horizontal=1;startSize=26;horizontalStack=0;resizeParent=1;resizeParentMax=0;resizeLast=0;collapsible=1;marginBottom=0;whiteSpace=wrap;html=1;" vertex="1" parent="1">
          <mxGeometry x="730" y="1370" width="320" height="120" as="geometry" />
        </mxCell>
        <mxCell id="FAGHmOxI_XLTzO8REsY1-8" value="+ endorseInquiry(): void" style="text;strokeColor=none;fillColor=none;align=left;verticalAlign=top;spacingLeft=4;spacingRight=4;overflow=hidden;rotatable=0;points=[[0,0.5],[1,0.5]];portConstraint=eastwest;whiteSpace=wrap;html=1;" vertex="1" parent="FAGHmOxI_XLTzO8REsY1-7">
          <mxGeometry y="26" width="320" height="26" as="geometry" />
        </mxCell>
        <mxCell id="FAGHmOxI_XLTzO8REsY1-9" value="" style="line;strokeWidth=1;fillColor=none;align=left;verticalAlign=middle;spacingTop=-1;spacingLeft=3;spacingRight=3;rotatable=0;labelPosition=right;points=[];portConstraint=eastwest;strokeColor=inherit;" vertex="1" parent="FAGHmOxI_XLTzO8REsY1-7">
          <mxGeometry y="52" width="320" height="8" as="geometry" />
        </mxCell>
        <mxCell id="FAGHmOxI_XLTzO8REsY1-10" value="- requestHandler(Request): NewEndorseInquiryRequest" style="text;strokeColor=none;fillColor=none;align=left;verticalAlign=top;spacingLeft=4;spacingRight=4;overflow=hidden;rotatable=0;points=[[0,0.5],[1,0.5]];portConstraint=eastwest;whiteSpace=wrap;html=1;" vertex="1" parent="FAGHmOxI_XLTzO8REsY1-7">
          <mxGeometry y="60" width="320" height="30" as="geometry" />
        </mxCell>
        <mxCell id="FAGHmOxI_XLTzO8REsY1-11" value="- responseHandler(Response): EndorseInquiryResponse" style="text;strokeColor=none;fillColor=none;align=left;verticalAlign=top;spacingLeft=4;spacingRight=4;overflow=hidden;rotatable=0;points=[[0,0.5],[1,0.5]];portConstraint=eastwest;whiteSpace=wrap;html=1;" vertex="1" parent="FAGHmOxI_XLTzO8REsY1-7">
          <mxGeometry y="90" width="320" height="30" as="geometry" />
        </mxCell>
        <mxCell id="FAGHmOxI_XLTzO8REsY1-12" value="&lt;i&gt;EndorseInquiryAdapter&lt;/i&gt;" style="swimlane;fontStyle=0;childLayout=stackLayout;horizontal=1;startSize=26;fillColor=none;horizontalStack=0;resizeParent=1;resizeParentMax=0;resizeLast=0;collapsible=1;marginBottom=0;whiteSpace=wrap;html=1;" vertex="1" parent="1">
          <mxGeometry x="410" y="1280" width="250" height="60" as="geometry" />
        </mxCell>
        <mxCell id="FAGHmOxI_XLTzO8REsY1-13" value="&lt;i&gt;+ endorseInquiry(Request, Response)&lt;span style=&quot;background-color: initial;&quot;&gt;:&amp;nbsp;&lt;/span&gt;void&lt;/i&gt;" style="text;strokeColor=none;fillColor=none;align=left;verticalAlign=top;spacingLeft=4;spacingRight=4;overflow=hidden;rotatable=0;points=[[0,0.5],[1,0.5]];portConstraint=eastwest;whiteSpace=wrap;html=1;" vertex="1" parent="FAGHmOxI_XLTzO8REsY1-12">
          <mxGeometry y="26" width="250" height="34" as="geometry" />
        </mxCell>
        <mxCell id="FAGHmOxI_XLTzO8REsY1-14" style="edgeStyle=orthogonalEdgeStyle;rounded=0;orthogonalLoop=1;jettySize=auto;html=1;entryX=0;entryY=0.5;entryDx=0;entryDy=0;" edge="1" parent="1" source="FAGHmOxI_XLTzO8REsY1-2" target="FAGHmOxI_XLTzO8REsY1-13">
          <mxGeometry relative="1" as="geometry" />
        </mxCell>
        <mxCell id="FAGHmOxI_XLTzO8REsY1-15" value="ConditionService" style="swimlane;fontStyle=1;align=center;verticalAlign=top;childLayout=stackLayout;horizontal=1;startSize=26;horizontalStack=0;resizeParent=1;resizeParentMax=0;resizeLast=0;collapsible=1;marginBottom=0;whiteSpace=wrap;html=1;" vertex="1" parent="1">
          <mxGeometry x="730" y="1170" width="320" height="120" as="geometry" />
        </mxCell>
        <mxCell id="FAGHmOxI_XLTzO8REsY1-16" value="+ endorseInquiry(): void" style="text;strokeColor=none;fillColor=none;align=left;verticalAlign=top;spacingLeft=4;spacingRight=4;overflow=hidden;rotatable=0;points=[[0,0.5],[1,0.5]];portConstraint=eastwest;whiteSpace=wrap;html=1;" vertex="1" parent="FAGHmOxI_XLTzO8REsY1-15">
          <mxGeometry y="26" width="320" height="26" as="geometry" />
        </mxCell>
        <mxCell id="FAGHmOxI_XLTzO8REsY1-17" value="" style="line;strokeWidth=1;fillColor=none;align=left;verticalAlign=middle;spacingTop=-1;spacingLeft=3;spacingRight=3;rotatable=0;labelPosition=right;points=[];portConstraint=eastwest;strokeColor=inherit;" vertex="1" parent="FAGHmOxI_XLTzO8REsY1-15">
          <mxGeometry y="52" width="320" height="8" as="geometry" />
        </mxCell>
        <mxCell id="FAGHmOxI_XLTzO8REsY1-18" value="- requestHandler(Request): NewEndorseInquiryRequest" style="text;strokeColor=none;fillColor=none;align=left;verticalAlign=top;spacingLeft=4;spacingRight=4;overflow=hidden;rotatable=0;points=[[0,0.5],[1,0.5]];portConstraint=eastwest;whiteSpace=wrap;html=1;" vertex="1" parent="FAGHmOxI_XLTzO8REsY1-15">
          <mxGeometry y="60" width="320" height="30" as="geometry" />
        </mxCell>
        <mxCell id="FAGHmOxI_XLTzO8REsY1-19" value="- responseHandler(Response): ConditionResponse" style="text;strokeColor=none;fillColor=none;align=left;verticalAlign=top;spacingLeft=4;spacingRight=4;overflow=hidden;rotatable=0;points=[[0,0.5],[1,0.5]];portConstraint=eastwest;whiteSpace=wrap;html=1;" vertex="1" parent="FAGHmOxI_XLTzO8REsY1-15">
          <mxGeometry y="90" width="320" height="30" as="geometry" />
        </mxCell>
        <mxCell id="FAGHmOxI_XLTzO8REsY1-20" style="edgeStyle=orthogonalEdgeStyle;rounded=0;orthogonalLoop=1;jettySize=auto;html=1;entryX=0;entryY=0.5;entryDx=0;entryDy=0;" edge="1" parent="1" source="FAGHmOxI_XLTzO8REsY1-8" target="FAGHmOxI_XLTzO8REsY1-4">
          <mxGeometry relative="1" as="geometry" />
        </mxCell>
        <mxCell id="FAGHmOxI_XLTzO8REsY1-21" style="edgeStyle=orthogonalEdgeStyle;rounded=0;orthogonalLoop=1;jettySize=auto;html=1;entryX=0;entryY=0.5;entryDx=0;entryDy=0;" edge="1" parent="1" source="FAGHmOxI_XLTzO8REsY1-16" target="FAGHmOxI_XLTzO8REsY1-4">
          <mxGeometry relative="1" as="geometry" />
        </mxCell>
        <mxCell id="FAGHmOxI_XLTzO8REsY1-22" value="EndorseInquiryService" style="swimlane;fontStyle=0;childLayout=stackLayout;horizontal=1;startSize=26;fillColor=none;horizontalStack=0;resizeParent=1;resizeParentMax=0;resizeLast=0;collapsible=1;marginBottom=0;whiteSpace=wrap;html=1;" vertex="1" parent="1">
          <mxGeometry x="70" y="1370" width="300" height="60" as="geometry" />
        </mxCell>
        <mxCell id="FAGHmOxI_XLTzO8REsY1-23" value="+ endorseInquiry(Request):EndorseInquiryResponse" style="text;strokeColor=none;fillColor=none;align=left;verticalAlign=top;spacingLeft=4;spacingRight=4;overflow=hidden;rotatable=0;points=[[0,0.5],[1,0.5]];portConstraint=eastwest;whiteSpace=wrap;html=1;" vertex="1" parent="FAGHmOxI_XLTzO8REsY1-22">
          <mxGeometry y="26" width="300" height="34" as="geometry" />
        </mxCell>
        <mxCell id="FAGHmOxI_XLTzO8REsY1-24" style="edgeStyle=orthogonalEdgeStyle;rounded=0;orthogonalLoop=1;jettySize=auto;html=1;entryX=0;entryY=0.5;entryDx=0;entryDy=0;" edge="1" parent="1" source="FAGHmOxI_XLTzO8REsY1-23" target="FAGHmOxI_XLTzO8REsY1-13">
          <mxGeometry relative="1" as="geometry" />
        </mxCell>
        <mxCell id="FAGHmOxI_XLTzO8REsY1-25" style="edgeStyle=orthogonalEdgeStyle;rounded=0;orthogonalLoop=1;jettySize=auto;html=1;entryX=1;entryY=0.5;entryDx=0;entryDy=0;endArrow=block;endFill=0;" edge="1" parent="1" source="FAGHmOxI_XLTzO8REsY1-16" target="FAGHmOxI_XLTzO8REsY1-13">
          <mxGeometry relative="1" as="geometry" />
        </mxCell>
        <mxCell id="FAGHmOxI_XLTzO8REsY1-26" style="edgeStyle=orthogonalEdgeStyle;rounded=0;orthogonalLoop=1;jettySize=auto;html=1;entryX=1;entryY=0.5;entryDx=0;entryDy=0;endArrow=block;endFill=0;" edge="1" parent="1" source="FAGHmOxI_XLTzO8REsY1-8" target="FAGHmOxI_XLTzO8REsY1-13">
          <mxGeometry relative="1" as="geometry" />
        </mxCell>
      </root>
    </mxGraphModel>
  </diagram>
</mxfile>
